<?xml version="1.0" encoding="UTF-8" standalone="no"?>
<!-- Created with Inkscape (http://www.inkscape.org/) -->

<svg
   xmlns:dc="http://purl.org/dc/elements/1.1/"
   xmlns:cc="http://creativecommons.org/ns#"
   xmlns:rdf="http://www.w3.org/1999/02/22-rdf-syntax-ns#"
   xmlns:svg="http://www.w3.org/2000/svg"
   xmlns="http://www.w3.org/2000/svg"
   xmlns:sodipodi="http://sodipodi.sourceforge.net/DTD/sodipodi-0.dtd"
   xmlns:inkscape="http://www.inkscape.org/namespaces/inkscape"
   width="744.09448819"
   height="1052.3622047"
   id="svg4770"
   version="1.1"
   inkscape:version="0.48.5 r10040"
   sodipodi:docname="New document 7">
  <defs
     id="defs4772" />
  <sodipodi:namedview
     id="base"
     pagecolor="#ffffff"
     bordercolor="#666666"
     borderopacity="1.0"
     inkscape:pageopacity="0.0"
     inkscape:pageshadow="2"
     inkscape:zoom="0.35"
     inkscape:cx="375"
     inkscape:cy="520"
     inkscape:document-units="px"
     inkscape:current-layer="layer1"
     showgrid="false"
     inkscape:window-width="1920"
     inkscape:window-height="1027"
     inkscape:window-x="1368"
     inkscape:window-y="0"
     inkscape:window-maximized="1" />
  <metadata
     id="metadata4775">
    <rdf:RDF>
      <cc:Work
         rdf:about="">
        <dc:format>image/svg+xml</dc:format>
        <dc:type
           rdf:resource="http://purl.org/dc/dcmitype/StillImage" />
        <dc:title></dc:title>
      </cc:Work>
    </rdf:RDF>
  </metadata>
  <g
     inkscape:label="Layer 1"
     inkscape:groupmode="layer"
     id="layer1">
    <path
       transform="matrix(0.48019761,0,0,0.48019761,45.226857,310.5857)"
       d="m 360.90619,422.51144 a 19.953949,19.953949 0 1 1 -39.9079,0 19.953949,19.953949 0 1 1 39.9079,0 z"
       sodipodi:ry="19.953949"
       sodipodi:rx="19.953949"
       sodipodi:cy="422.51144"
       sodipodi:cx="340.95224"
       id="path5145"
       style="fill:#2c4067;fill-opacity:1;stroke:#ffffff;stroke-opacity:1"
       sodipodi:type="arc" />
    <path
       sodipodi:nodetypes="cccc"
       inkscape:connector-curvature="0"
       d="m 197.15096,431.4281 41.8042,41.04098 1e-4,50.79279 -41.2663,-40.65141"
       style="fill:none;stroke:#2c4067;stroke-width:1.9882853;stroke-miterlimit:4;stroke-opacity:1;stroke-dasharray:none"
       id="path5147" />
    <path
       sodipodi:nodetypes="ccccc"
       inkscape:connector-curvature="0"
       d="m 196.84776,432.14065 -62.5132,21.42616 0,51.47362 62.5132,-21.35389 z"
       style="fill:none;stroke:#2c4067;stroke-width:2;stroke-miterlimit:4;stroke-opacity:1;stroke-dasharray:none"
       id="path5149" />
    <g
       id="g4730"
       transform="translate(77.555857,-431.4212)">
      <path
         sodipodi:type="arc"
         style="fill:#2c4067;fill-opacity:1;stroke:#ffffff;stroke-width:4.24383736;stroke-miterlimit:4;stroke-opacity:1;stroke-dasharray:none"
         id="path5153"
         sodipodi:cx="272.84857"
         sodipodi:cy="488.88004"
         sodipodi:rx="69.838821"
         sodipodi:ry="69.838821"
         d="m 342.68739,488.88004 c 0,38.57091 -31.2679,69.83882 -69.83882,69.83882 -38.57091,0 -69.83882,-31.26791 -69.83882,-69.83882 0,-38.57092 31.26791,-69.83883 69.83882,-69.83883 38.57092,0 69.83882,31.26791 69.83882,69.83883 z"
         transform="matrix(0.47127159,0,0,0.47127159,-18.59202,686.63499)" />
      <path
         sodipodi:type="arc"
         style="fill:#ffffff;fill-opacity:1;stroke:#2c4067;stroke-opacity:1"
         id="path5155"
         sodipodi:cx="340.95224"
         sodipodi:cy="422.51144"
         sodipodi:rx="19.953949"
         sodipodi:ry="19.953949"
         d="m 360.90619,422.51144 c 0,11.02027 -8.93369,19.95395 -19.95395,19.95395 -11.02026,0 -19.95395,-8.93368 -19.95395,-19.95395 0,-11.02026 8.93369,-19.95394 19.95395,-19.95394 11.02026,0 19.95395,8.93368 19.95395,19.95394 z"
         transform="matrix(0.44407137,0,0.0618475,0.44407137,-54.33046,714.01436)" />
      <path
         sodipodi:type="arc"
         style="fill:#2c4067;fill-opacity:1;stroke:#ffffff;stroke-width:4.1649518;stroke-miterlimit:4;stroke-opacity:1;stroke-dasharray:none"
         id="path5157"
         sodipodi:cx="340.95224"
         sodipodi:cy="422.51144"
         sodipodi:rx="19.953949"
         sodipodi:ry="19.953949"
         d="m 360.90619,422.51144 c 0,11.02027 -8.93369,19.95395 -19.95395,19.95395 -11.02026,0 -19.95395,-8.93368 -19.95395,-19.95395 0,-11.02026 8.93369,-19.95394 19.95395,-19.95394 11.02026,0 19.95395,8.93368 19.95395,19.95394 z"
         transform="matrix(0.48019761,0,0,0.48019761,-20.51204,680.2168)" />
    </g>
    <path
       transform="matrix(0.44580448,0,0,0.44580448,-5.6950429,279.38129)"
       d="m 360.90619,422.51144 a 19.953949,19.953949 0 1 1 -39.9079,0 19.953949,19.953949 0 1 1 39.9079,0 z"
       sodipodi:ry="19.953949"
       sodipodi:rx="19.953949"
       sodipodi:cy="422.51144"
       sodipodi:cx="340.95224"
       id="path5159"
       style="fill:#2c4067;fill-opacity:1;stroke:#ffffff;stroke-opacity:1"
       sodipodi:type="arc" />
    <path
       transform="matrix(0.26524055,0,0,0.26524055,151.67906,348.56131)"
       d="m 360.90619,422.51144 a 19.953949,19.953949 0 1 1 -39.9079,0 19.953949,19.953949 0 1 1 39.9079,0 z"
       sodipodi:ry="19.953949"
       sodipodi:rx="19.953949"
       sodipodi:cy="422.51144"
       sodipodi:cx="340.95224"
       id="path5161"
       style="fill:#2c4067;fill-opacity:1;stroke:#eaf1ff;stroke-opacity:1"
       sodipodi:type="arc" />
    <path
       sodipodi:nodetypes="cccc"
       inkscape:connector-curvature="0"
       d="m 133.99056,453.18445 40.936,42.20767 m 0.6189,52.20657 -41.5289,-41.8628"
       style="fill:none;stroke:#2c4067;stroke-width:1.95486188;stroke-miterlimit:4;stroke-opacity:1;stroke-dasharray:none"
       id="path5165" />
    <path
       sodipodi:nodetypes="ccccc"
       inkscape:connector-curvature="0"
       d="m 239.04626,524.76567 -1e-4,-51.32013 -63.1703,22.18423 0,51.24723 z"
       style="fill:none;stroke:#2c4067;stroke-width:2.00343513;stroke-miterlimit:4;stroke-opacity:1;stroke-dasharray:none"
       id="path5169" />
    <path
       style="fill:none;stroke:#ffffff;stroke-width:2;stroke-linecap:round;stroke-linejoin:miter;stroke-miterlimit:4;stroke-opacity:1;stroke-dasharray:none"
       d="m 235.95726,472.43789 -59.8999,20.98149"
       id="path5171"
       inkscape:connector-curvature="0"
       sodipodi:nodetypes="cc" />
    <path
       sodipodi:nodetypes="cc"
       inkscape:connector-curvature="0"
       id="path5173"
       d="m 138.72356,455.55392 37.2283,37.82824"
       style="fill:none;stroke:#ffffff;stroke-width:2;stroke-linecap:round;stroke-linejoin:miter;stroke-miterlimit:4;stroke-opacity:1;stroke-dasharray:none;marker-start:none" />
    <path
       sodipodi:nodetypes="cc"
       inkscape:connector-curvature="0"
       id="path5175"
       d="m 236.98466,476.36781 -58.9807,20.52428"
       style="fill:#ffffff;stroke:#ffffff;stroke-width:2;stroke-linecap:round;stroke-linejoin:miter;stroke-miterlimit:4;stroke-opacity:1;stroke-dasharray:none" />
    <path
       style="fill:none;stroke:#ffffff;stroke-width:2;stroke-linecap:round;stroke-linejoin:miter;stroke-miterlimit:4;stroke-opacity:1;stroke-dasharray:none"
       d="m 177.92926,535.11568 -0.098,-38.12075"
       id="path5177"
       inkscape:connector-curvature="0"
       sodipodi:nodetypes="cc" />
    <path
       style="fill:none;stroke:#ffffff;stroke-width:2;stroke-linecap:round;stroke-linejoin:miter;stroke-miterlimit:4;stroke-opacity:1;stroke-dasharray:none;marker-start:none"
       d="m 138.21326,460.3827 35.5665,36.34153"
       id="path5179"
       inkscape:connector-curvature="0"
       sodipodi:nodetypes="cc" />
    <path
       sodipodi:nodetypes="cc"
       inkscape:connector-curvature="0"
       id="path5181"
       d="m 173.88756,535.11568 0.023,-38.22197"
       style="fill:none;stroke:#ffffff;stroke-width:2;stroke-linecap:round;stroke-linejoin:miter;stroke-miterlimit:4;stroke-opacity:1;stroke-dasharray:none" />
    <text
       xml:space="preserve"
       style="font-size:88.23236084px;font-style:normal;font-weight:normal;line-height:125%;letter-spacing:0px;word-spacing:0px;fill:#000000;fill-opacity:1;stroke:none;font-family:Sans"
       x="258.02298"
       y="517.68549"
       id="text3939"
       sodipodi:linespacing="125%"><tspan
         sodipodi:role="line"
         id="tspan3941"
         x="258.02298"
         y="517.68549"
         style="font-style:normal;font-variant:normal;font-weight:bold;font-stretch:normal;word-spacing:0px;fill:#000000;font-family:Century Gothic;-inkscape-font-specification:Century Gothic Bold"
         dx="0 -5.6316514 -5.9124947 -8.6026793 -9.3417425 -4.5674014 -7.2206345 -2.0250294">LuaRocks</tspan></text>
  </g>
</svg>
